<svg width="235" height="64" viewBox="0 0 235 64" fill="none" xmlns="http://www.w3.org/2000/svg">
<path d="M0 0H15.2123L25.1179 49.1697H25.5601L35.4658 0H50.5896L35.6427 64H14.9469L0 0ZM57.2228 0H71.6391V64H57.2228V0ZM93.1308 48.9931C93.1308 45.5503 91.8926 42.6372 89.6815 38.8414L84.994 30.8966C81.5448 25.0703 79.7759 20.8331 79.7759 15.9779C79.7759 9.53379 82.6061 4.14897 85.7016 0H101.356C97.3761 4.41379 94.1922 9.79862 94.1922 15.0069C94.1922 18.4497 95.4304 21.3628 97.6414 25.1586L102.329 33.1034C105.778 38.9297 107.547 43.1669 107.547 48.0221C107.547 54.4662 104.717 59.851 101.621 64H85.9669C89.9469 59.5862 93.1308 54.2014 93.1308 48.9931ZM115.684 0H139.387L146.462 34.9572H146.904L153.975 0H177.678V64H163.439V14.8303H162.997L152.649 64H140.709L130.361 14.8303H129.919V64H115.679V0H115.684ZM199.258 0H219.954L234.901 64H219.689L209.783 14.8303H209.341L199.435 64H184.311L199.258 0Z" fill="black"/>
</svg>
